<?xml version="1.0" encoding="utf-8" ?>
<svg xmlns="http://www.w3.org/2000/svg" xmlns:xlink="http://www.w3.org/1999/xlink" width="1164" height="1164">
	<path fill="#FEFEFE" transform="scale(1.13734 1.13734)" d="M0 0L1024 0L1024 1024L0 1024L0 0Z"/>
	<path fill="#141413" transform="scale(1.13734 1.13734)" d="M237.134 39.7092C237.258 39.6958 237.381 39.6769 237.505 39.6691C248.994 38.9435 260.76 39.4759 272.28 39.5081L338.75 39.7182L552.753 39.5156L702.292 39.7445L752.606 39.4022C771.79 39.2795 791.198 39.0043 810.155 42.4532C847.349 49.2195 880.253 65.4192 909.004 89.8444Q910.998 91.5392 912.949 93.2823Q914.901 95.0254 916.809 96.8157Q918.717 98.606 920.581 100.442Q922.445 102.279 924.263 104.16Q926.082 106.042 927.854 107.967Q929.626 109.893 931.35 111.861Q933.074 113.829 934.75 115.839Q936.425 117.849 938.051 119.899Q939.677 121.949 941.252 124.039Q942.827 126.128 944.351 128.255Q945.875 130.383 947.346 132.547Q948.817 134.711 950.234 136.91Q951.652 139.109 953.016 141.342Q954.379 143.576 955.688 145.842Q956.996 148.108 958.249 150.405Q959.501 152.702 960.698 155.03Q961.894 157.357 963.032 159.713Q964.171 162.069 965.252 164.452Q966.333 166.835 967.355 169.243Q968.377 171.652 969.34 174.085Q970.303 176.518 971.206 178.974Q972.109 181.43 972.951 183.907Q973.794 186.384 974.576 188.882Q975.358 191.379 976.078 193.894Q976.799 196.41 977.458 198.942Q978.116 201.474 978.713 204.022Q979.31 206.57 979.844 209.131Q980.378 211.693 980.849 214.267Q981.32 216.841 981.728 219.425Q982.137 222.01 982.481 224.604Q982.826 227.197 983.107 229.799Q983.389 232.4 983.606 235.008C984.925 251.545 984.495 268.431 984.413 285.015L984.123 353.926L984.32 561.026L984.484 705.369L984.641 749.22C984.714 768.245 984.721 786.521 981.301 805.325C973.867 846.198 957.414 882.958 930.298 914.54C894.449 956.294 842.75 980.707 788.12 984.903Q786.754 985.096 785.379 985.202C774.847 986.019 763.979 985.502 753.412 985.483L695.29 985.359L512.386 985.387L328.336 985.416L273.729 985.484C253.63 985.48 233.29 985.759 213.449 982.1Q209.967 981.438 206.509 980.662Q203.051 979.886 199.62 978.997Q196.189 978.108 192.789 977.107Q189.389 976.106 186.024 974.994Q182.659 973.882 179.332 972.66Q176.005 971.438 172.72 970.107Q169.436 968.776 166.196 967.339Q162.957 965.901 159.766 964.358Q156.576 962.814 153.437 961.167Q150.299 959.52 147.217 957.771Q144.134 956.021 141.111 954.172Q138.088 952.322 135.127 950.374Q132.166 948.427 129.271 946.383Q126.375 944.339 123.548 942.201Q120.722 940.063 117.966 937.833Q115.211 935.604 112.531 933.285C72.5221 898.735 45.5417 846.95 41.8402 794.115C41.01 782.265 41.3911 770.254 41.4086 758.38L41.4461 700.44L41.2679 503.068L41.2521 323.741L41.1114 274.572C41.0073 252.675 40.7669 231.472 44.8941 209.835Q45.5654 206.342 46.3532 202.874Q47.1411 199.406 48.0445 195.966Q48.9479 192.526 49.966 189.119Q50.984 185.711 52.1155 182.339Q53.247 178.968 54.4906 175.636Q55.7343 172.304 57.0888 169.015Q58.4433 165.727 59.907 162.485Q61.3708 159.244 62.9422 156.054Q64.5135 152.863 66.1908 149.727Q67.8681 146.591 69.6494 143.512Q71.4306 140.434 73.3139 137.417Q75.1972 134.4 77.1804 131.448Q79.1636 128.496 81.2444 125.612Q83.3253 122.727 85.5015 119.914Q87.6777 117.101 89.9468 114.363Q92.2159 111.624 94.5754 108.963C130.951 67.2766 182.311 43.4014 237.134 39.7092Z"/>
	<path fill="#FEFEFE" transform="scale(1.13734 1.13734)" d="M508.94 79.5712Q510.091 79.4436 511.248 79.422C513.943 79.3491 516.568 79.5755 518.535 81.6333C519.396 82.5337 519.869 83.4981 520.083 84.7187C521.442 92.4838 520.78 101.188 520.864 109.081Q521.245 132.463 521.07 155.847C525.967 149.675 538.428 131.192 545.453 129.446C546.966 129.07 548.393 129.222 549.729 130.068C551.21 131.006 552.108 132.701 552.401 134.383C552.762 136.454 551.758 138.869 550.743 140.614C547.807 145.665 543.077 150.099 539.352 154.604L521.472 176.607C521.268 182.762 521.387 188.962 521.366 195.122C525.039 190.337 553.885 156.065 556.262 155.002C557.947 154.248 560.064 154.231 561.737 155.028C563.393 155.817 564.831 157.414 565.279 159.212C565.707 160.928 565.187 162.716 564.381 164.238C562.133 168.486 558.162 172.48 555.109 176.204L532.806 203.249C529.137 207.668 524.752 212.044 521.735 216.918C521.643 217.066 521.556 217.217 521.467 217.366C521.476 228.373 522.004 239.677 521.05 250.636Q522.462 248.551 523.915 246.493C528.63 239.818 533.557 233.281 538.311 226.631C541.968 221.517 545.531 215.618 549.936 211.141C551.23 209.827 552.783 208.46 554.72 208.345C556.272 208.252 558.194 208.917 559.397 209.9C560.513 210.812 561.095 212.086 561.214 213.498C561.422 215.954 560.416 218.48 559.274 220.6C555.672 227.286 550.075 233.498 545.73 239.78C537.646 251.468 530.138 263.82 521.312 274.952Q521.728 291.759 521.324 308.567Q524.103 304.758 526.957 301.005C532.943 293.137 539.421 285.651 545.486 277.842C550.154 271.832 555.928 262.752 561.351 257.837C562.762 256.557 564.393 255.655 566.313 255.47C568.305 255.278 570.346 255.984 571.88 257.249C573.304 258.422 574.256 260.093 574.373 261.948C574.509 264.108 573.113 266.074 571.981 267.797C567.628 274.42 562.04 280.54 557.247 286.904C546.067 301.747 534.94 317.095 522.942 331.269C526.277 338.372 530.383 345.224 534.233 352.064C543.745 368.961 555.638 391.51 570.282 404.256C575.982 394.13 581.669 383.83 587.999 374.087C583.922 362.908 579.022 351.869 574.438 340.883C572.539 336.33 569.985 331.574 568.86 326.774C568.352 324.608 568.163 322.168 569.068 320.072C569.754 318.484 571.077 317.305 572.671 316.67C574.916 315.775 578.42 315.507 580.65 316.556C585.499 318.839 591.237 338.699 593.207 344.243Q592.932 341.772 592.777 339.291C592.411 333.548 589.978 317.811 593.91 313.761C595.556 312.066 598.174 311.388 600.47 311.377C602.661 311.365 605.16 311.929 606.737 313.553C610.682 317.615 609.408 325.487 609.193 330.694C615.651 320.897 622.005 310.2 627.338 299.776C624.624 293.435 610.712 268.138 613.032 262.26C613.752 260.436 615.279 258.967 617.07 258.196C618.783 257.458 620.53 257.504 622.206 258.306C626.505 260.362 634.34 279.167 635.685 284C642.34 274.256 648 263.33 653.303 252.782C649.655 243.634 645.63 234.396 641.544 225.432C639.212 220.317 636.156 214.951 634.494 209.586C633.903 207.678 633.414 205.516 633.938 203.533C634.361 201.928 635.428 200.646 636.873 199.85C638.606 198.896 640.25 198.566 642.178 199.148C648.201 200.965 659.259 229.845 662.256 236.722C668.317 227.855 673.396 217.925 678.671 208.549C676.138 201.258 665.938 179.963 668.123 173.51Q668.218 173.222 668.343 172.945Q668.467 172.669 668.62 172.407Q668.773 172.145 668.953 171.901Q669.133 171.657 669.337 171.433Q669.541 171.208 669.768 171.007Q669.995 170.806 670.242 170.629Q670.488 170.453 670.752 170.303Q671.016 170.154 671.294 170.033C673.004 169.273 675.056 169.199 676.763 170.003C682.57 172.737 686.083 186.614 688.345 192.482C692.377 184.887 711.816 148.705 716.016 145.14C718.263 144.637 720.356 144.506 722.576 145.265C724.318 145.86 726.088 147.084 726.728 148.894C727.23 150.312 727.138 151.635 726.679 153.041C724.41 159.996 719.862 166.608 716.184 172.915C710.767 182.199 705.218 191.475 700.36 201.065C706.698 199.351 719.434 195.041 725.426 198.469C726.655 199.172 727.53 200.244 727.854 201.645C728.274 203.46 727.901 206.178 726.796 207.71C723.113 212.818 698.575 214.671 692.013 216.414C691.825 216.464 691.638 216.517 691.451 216.569C685.955 225.478 681.009 234.736 675.94 243.893C685.836 242.228 695.628 239.931 705.476 237.997C709.761 237.155 714.335 235.896 718.693 235.772C720.397 235.723 722.262 236.222 723.71 237.123C725.036 237.948 726.016 239.201 726.272 240.775C726.583 242.684 725.879 244.688 724.759 246.215C723.581 247.822 721.799 248.985 719.928 249.626C715.227 251.238 709.622 251.828 704.726 252.775C692.577 255.126 680.458 257.407 668.213 259.209C661.891 269.426 656.03 279.978 650.077 290.414C656.113 289.139 672.903 285.193 678.131 287.727C679.928 288.598 681.521 290.095 682.135 292.035C682.653 293.671 682.441 295.408 681.61 296.903C680.71 298.523 679.057 299.732 677.366 300.42C668.425 304.056 652.054 303.237 641.612 306.695C641.396 306.766 641.182 306.843 640.966 306.917C635.118 316.31 630.765 326.544 624.935 335.937C629.029 333.784 634.645 330.703 639.382 331.748C641.545 332.225 643.714 333.599 644.827 335.546C645.938 337.489 646.253 339.684 645.527 341.816C643.413 348.026 622.811 355.712 616.39 358.721C626.298 358.363 635.998 356.271 645.965 356.562C648.317 358.251 651.435 361.025 651.585 364.192C651.638 365.32 651.071 366.501 650.385 367.372C648.529 369.727 645.298 371.106 642.478 371.849C636.665 373.38 630.14 373.685 624.162 374.316Q608.869 375.949 593.552 377.346C587.308 387.593 581.961 398.247 575.332 408.307C587.087 410.99 600.123 411.417 612.151 411.849Q629.457 412.325 646.768 412.19C652.996 412.163 660.159 412.746 666.218 411.35C668.524 410.819 669.903 409.693 671.605 408.108C677.133 387.759 683.782 368.01 690.53 348.064C692.791 341.38 694.261 333.819 697.224 327.442C698.011 325.749 699.217 324.311 700.865 323.404C702.761 322.36 705.137 322.15 707.171 322.908C708.662 323.464 709.914 324.547 710.567 326.015C711.442 327.986 711.233 330.372 710.81 332.435C709.788 337.416 707.473 342.777 705.993 347.71Q697.789 374.284 688.924 400.645C695.894 396.236 708.754 390.686 713.917 385.089C716.707 382.065 718.158 377.38 719.883 373.682C723.352 366.243 727.089 358.911 730.155 351.292C733.446 343.115 736.123 334.413 739.97 326.496C740.81 324.768 741.729 322.98 743.343 321.859C744.639 320.959 746.343 320.787 747.844 321.164C749.913 321.684 751.865 322.755 752.856 324.716C753.659 326.307 753.567 328.301 753.231 329.989C752.126 335.55 749.494 341.037 747.454 346.312L737.833 371.438C743.809 366.658 752.729 361.202 759.97 358.743C762.476 347.455 767.26 336.955 770.901 326.005C774.282 315.838 776.819 304.917 780.936 295.06C781.721 293.182 782.596 291.156 784.35 289.998C786.065 288.865 788.816 288.651 790.759 289.204C792.157 289.602 793.629 290.838 794.19 292.203C794.789 293.66 794.918 295.517 794.714 297.069C794.203 300.966 792.159 305.5 790.951 309.335Q785.043 328.363 778.337 347.125L793.152 337.796C795.604 328.393 799.037 319.084 801.891 309.775C803.563 304.322 804.728 298.207 806.828 292.966C807.458 291.394 808.354 289.957 809.763 288.977C811.474 287.786 813.968 287.459 815.982 287.904Q816.265 287.968 816.539 288.063Q816.814 288.158 817.076 288.282Q817.339 288.406 817.586 288.559Q817.833 288.711 818.062 288.889Q818.29 289.068 818.498 289.271Q818.706 289.473 818.891 289.698Q819.075 289.922 819.233 290.165Q819.392 290.408 819.523 290.667C820.433 292.441 820.54 294.712 820.328 296.657C819.442 304.795 813.517 320.887 811.099 329.544C822.741 322.224 835.163 316.005 847.113 309.184C854.7 304.853 862.506 299.084 870.558 295.884C872.905 294.951 875.517 294.426 878.028 294.919C879.688 295.244 881.195 296.077 882.103 297.543C883.155 299.241 883.5 301.661 882.919 303.578C882.289 305.655 880.734 307.728 879.017 309.029C872.154 314.228 863.368 318.238 855.871 322.539C843.211 329.803 830.685 337.565 817.779 344.366C825.345 345.609 856.014 349.625 860.022 354.528C861.057 355.794 861.207 357.139 860.962 358.715C860.653 360.7 859.709 362.553 858.019 363.7C856.86 364.488 855.51 364.841 854.119 364.861C849.298 364.929 844.159 363.709 839.399 362.939C826.322 360.824 813.406 357.831 800.367 355.704Q792.922 359.047 785.976 363.333C798.055 365.817 810.33 367.619 822.453 369.99C827.016 370.883 831.962 371.53 836.36 373.052C838.792 373.893 841.315 375.147 842.99 377.161C843.993 378.368 844.621 379.868 844.303 381.462C843.974 383.109 842.446 385.159 841.022 386.031C839.764 386.801 838.228 387.072 836.77 386.977C825.159 386.22 809.077 382.272 797.188 380.045C787.539 378.238 777.365 377.13 767.92 374.515C759.018 379.085 750.469 384.406 741.869 389.515C752.475 391.215 762.898 393.272 773.448 395.241C778.21 396.13 783.357 396.539 787.975 397.992C790.144 398.674 792.311 399.665 793.88 401.357C795.199 402.778 796.043 404.714 795.897 406.675C795.777 408.277 794.985 409.638 793.698 410.581C792.364 411.558 790.725 411.894 789.099 411.865C780.898 411.716 772.146 409.408 764.039 408.071L724.088 401.732C715.415 407.091 706.526 412.393 697.504 417.137C705.757 418.475 761.104 429.464 764.152 432.394C765.525 433.714 766.156 435.337 766.094 437.235C766.024 439.416 765.027 441.654 763.328 443.05C761.813 444.296 760.183 444.46 758.289 444.315C750.768 443.741 742.757 441.358 735.354 439.796C716.819 435.884 698.034 431.352 679.212 429.126C677.087 430.583 675.245 431.979 673.624 434.003C669.659 438.953 666.65 445.066 663.323 450.49C656.048 462.348 648.15 473.737 642.536 486.533C639.508 493.435 637.39 500.408 635.886 507.785C648.649 508.197 661.784 507.812 674.556 507.582C678.95 502.788 682.682 497.315 686.862 492.317C691.031 487.331 706.017 467.023 712.214 466.768C714.188 466.687 716.136 467.613 717.561 468.932C719.256 470.5 720.347 472.39 720.274 474.744C720.041 482.246 705.417 494.837 700.311 499.916C705.662 497.198 710.504 494.251 715.382 490.762C718.528 488.512 721.694 485.867 725.026 483.923Q725.753 483.506 726.556 483.27Q727.36 483.034 728.196 482.991C730.746 482.858 733.194 483.976 734.949 485.788C736.372 487.257 737.271 489.269 737.162 491.336C736.9 496.284 729.916 501.01 726.455 504.055C736.204 503.31 746.175 503.824 755.95 503.937C761.55 496.915 766.872 489.577 772.149 482.308C774.385 479.228 776.375 475.712 778.977 472.946C779.861 472.006 781.025 470.998 782.327 470.726C784.394 470.295 787.863 470.62 789.61 471.945C790.721 472.788 791.25 474.106 791.4 475.449C792.244 482.994 779.116 497.822 774.366 504.074C787.043 503.759 799.768 503.934 812.45 503.951L830.808 480.038C834.388 475.316 837.87 469.901 842.069 465.749C843.61 464.226 845.843 462.484 848.07 462.202C849.51 462.02 850.45 462.398 851.598 463.202C853.381 464.452 854.478 466.03 854.705 468.222C855.361 474.548 834.558 498.091 829.817 504.178Q844.288 503.91 858.761 503.884C863.342 498.919 867.686 493.634 871.811 488.286C874.135 485.273 876.25 481.755 879.024 479.16C880.074 478.178 881.229 477.561 882.645 477.276C884.748 476.854 887.165 477.31 888.879 478.632C890.173 479.63 890.968 481.089 891.052 482.723C891.372 488.899 881.361 499.417 877.405 503.963L910.779 503.983C916.399 503.986 922.428 503.543 927.987 504.249C929.999 504.505 931.891 504.873 933.493 506.2Q933.809 506.458 934.096 506.747Q934.383 507.037 934.638 507.355Q934.893 507.673 935.113 508.016Q935.333 508.359 935.516 508.723Q935.699 509.087 935.843 509.469Q935.987 509.85 936.09 510.244Q936.193 510.639 936.254 511.042Q936.315 511.445 936.334 511.852C936.404 513.757 935.716 515.532 934.364 516.885C933.435 517.814 932.204 518.394 930.924 518.644C924.653 519.871 917.516 519.233 911.11 519.257L876.815 519.449C880.99 524.341 891.317 534.154 891.342 540.586C891.349 542.296 890.559 543.607 889.335 544.733C887.988 545.974 886.265 546.57 884.432 546.332C877.646 545.448 863.948 525.287 859.292 519.396C849.535 519.087 839.615 519.012 829.863 519.43C834.289 524.966 854.812 548.78 855.221 553.597C855.381 555.487 854.72 557.226 853.463 558.63C852 560.264 849.814 561.293 847.611 561.259C845.62 561.229 844.051 560.363 842.633 559.015C838.141 554.745 834.598 548.862 830.929 543.88C824.765 535.51 818.398 527.163 811.374 519.492C798.638 519.311 785.727 518.691 773.014 519.396C777.662 525.086 791.761 539.471 791.558 546.561C791.512 548.168 790.861 549.586 789.656 550.66C788.156 551.998 786.35 552.548 784.357 552.299C781.598 551.955 779.224 550.262 777.285 548.367C774.388 545.538 772.125 541.888 769.695 538.651Q762.439 529.128 755.381 519.458C745.767 519.236 736.103 519.494 726.484 519.545C729.807 521.91 733.168 524.171 735.102 527.899C736.301 530.212 736.765 533.024 735.792 535.503C735.18 537.063 734.008 538.307 732.45 538.942C730.269 539.831 727.739 539.468 725.611 538.611C721.777 537.067 718.434 534.007 714.964 531.77Q708.099 527.346 700.707 523.875Q701.189 524.315 701.661 524.765C706.292 529.159 720.117 542.08 720.005 547.896C719.967 549.84 719.065 551.688 717.672 553.025C716.312 554.33 714.531 555.161 712.626 555.034C703.538 554.432 681.302 524.314 675.029 516.53L635.776 516.541C639.686 535.855 650.179 551.261 660.274 567.762Q669.139 582.176 677.622 596.817C691.737 593.179 706.493 591.026 720.788 588.031C731.591 585.767 745.183 581.793 755.762 580.765C757.525 580.594 758.845 580.595 760.436 581.477C762.057 582.375 763.38 583.991 763.842 585.797C764.276 587.492 764 589.639 762.989 591.093C761.946 592.594 760.101 593.515 758.419 594.083C755.508 595.067 752.244 595.422 749.239 596.128C742.53 597.704 735.861 599.301 729.118 600.757C717.69 603.225 706.343 606.465 694.711 607.802C704.321 613.171 713.477 618.893 723.405 623.703C735.75 621.538 748.183 620.212 760.575 618.392C768.253 617.264 776.068 615.436 783.776 614.81C785.592 614.663 787.519 614.509 789.227 615.272Q789.542 615.413 789.841 615.585Q790.14 615.757 790.42 615.958Q790.701 616.158 790.96 616.386Q791.219 616.614 791.455 616.866Q791.69 617.118 791.899 617.392Q792.109 617.666 792.289 617.96Q792.471 618.253 792.622 618.563Q792.773 618.873 792.892 619.197C793.59 621.037 793.516 623.203 792.47 624.902C791.448 626.561 789.726 627.473 787.944 628.105C782.518 630.026 776.148 630.399 770.472 631.235Q756.185 633.337 741.934 635.674C749.404 641.084 758.45 645.233 766.425 649.987C774.056 649.148 781.76 647.189 789.305 645.733C799.542 643.759 809.834 642.106 820.097 640.278C825.589 639.3 831.441 637.783 836.976 637.414C838.772 637.295 840.66 637.47 842.312 638.224C844.094 639.037 845.512 640.917 846.161 642.735C846.596 643.954 846.601 645.306 845.941 646.454C844.758 648.511 842.081 649.603 839.934 650.26C835.122 651.733 829.773 652.099 824.814 652.956C811.427 655.268 797.781 657.317 784.509 660.212Q792.079 664.157 799.363 668.609C805.792 667.277 851.086 657.073 855.341 659.088C857.262 659.998 858.806 662.032 859.398 664.046C859.881 665.693 859.727 667.077 858.833 668.572C858.169 669.683 857.013 670.486 855.84 670.972C852.363 672.412 848.069 672.738 844.39 673.5L818.235 678.882C829.59 685.167 840.632 691.999 852.016 698.238C861.03 703.179 871.265 707.672 879.644 713.562C881.826 715.095 883.879 716.885 884.817 719.459C885.445 721.18 885.363 723.159 884.49 724.782C883.285 727.025 881.112 728.534 878.667 729.137C875.727 729.863 872.673 729.136 869.952 727.959C863.715 725.261 854.88 719.23 848.606 715.692C835.689 708.409 822.382 701.66 809.611 694.149C811.895 700.994 823.686 726.426 820.933 731.948C820.187 733.444 818.748 734.377 817.227 734.942C815.62 735.539 813.982 735.436 812.461 734.649C810.682 733.729 809.385 731.936 808.424 730.23C805.508 725.051 803.643 718.6 801.596 713.025Q796.117 698.536 791.036 683.902C786.645 681.527 782.378 679 778.114 676.409C780.783 683.314 794.775 721.544 794.24 726.212C793.999 728.312 792.941 730.114 791.164 731.28C789.597 732.307 787.135 733.023 785.303 732.395C783.503 731.778 782.236 729.627 781.449 728.014C778.778 722.543 777.128 716.034 775.163 710.256C770.13 695.452 765.473 680.462 760.161 665.765C751.867 660.222 742.823 655.687 734.02 651.01C738.211 658.695 741.41 666.739 745.197 674.608C747.699 679.809 751.097 685.184 752.937 690.642C753.388 691.98 753.622 693.295 753.307 694.696C752.83 696.813 750.964 698.76 749.104 699.772C747.738 700.515 746.525 700.58 745.079 700.056C743.277 699.402 741.802 697.453 740.805 695.909C736.541 689.304 733.506 681.38 730.144 674.28C724.835 663.069 719.228 651.956 713.85 640.766C704.906 634.557 695.058 629.802 685.923 623.889C689.274 631.452 691.663 639.318 694.529 647.061C699.06 659.301 704.281 672.122 707.509 684.74C708.098 687.04 708.887 690.07 708.242 692.396C707.811 693.949 706.746 695.133 705.322 695.848C703.496 696.765 700.753 696.975 698.845 696.182C697.162 695.483 696.467 694.009 695.728 692.452C691.682 683.923 689.08 674.006 685.957 665.029C680.075 648.127 673.965 631.048 667.23 614.474C665.415 613.371 663.6 612.238 661.73 611.233C660.443 610.542 659.139 609.835 657.674 609.631C650.975 608.695 643.713 609.405 636.951 609.469C622.706 609.603 608.005 609.271 593.846 610.792C588.188 611.4 582.73 612.554 577.281 614.177C584.261 623.521 590.32 634.626 595.454 645.11C604.503 645.998 649.486 650.721 653.281 655.772C654.478 657.365 654.832 659.446 654.53 661.39C654.198 663.522 653.044 665.736 651.18 666.914C646.51 669.865 623.954 665.343 617.617 664.294C623.968 667.644 643.216 674.646 645.615 680.482C646.275 682.089 646.296 683.729 645.582 685.324C644.728 687.228 642.592 689.584 640.556 690.209C635.669 691.71 628.454 686.796 624.387 684.424C630.498 693.659 636.108 703.784 641.302 713.571C651.687 717.374 662.878 719.867 673.592 722.585C676.475 723.317 681.431 724.42 682.926 727.164C683.884 728.924 683.996 730.928 683.422 732.831C682.941 734.422 681.933 735.876 680.403 736.602C675.141 739.099 655.331 732.799 649.269 730.943C656.995 742.109 661.756 755.542 670.099 766.153C682.075 769.508 695.455 770.528 707.793 772.197C712.078 772.776 716.838 773.041 720.986 774.275C722.506 774.728 723.965 775.603 724.964 776.851Q725.184 777.122 725.376 777.413Q725.568 777.704 725.729 778.014Q725.891 778.323 726.02 778.647Q726.149 778.971 726.245 779.306Q726.341 779.642 726.403 779.985Q726.465 780.329 726.491 780.676Q726.518 781.024 726.509 781.373Q726.501 781.722 726.457 782.068Q726.417 782.409 726.342 782.743Q726.266 783.077 726.155 783.402Q726.045 783.726 725.9 784.037Q725.755 784.348 725.578 784.641Q725.401 784.934 725.193 785.207Q724.986 785.48 724.75 785.73Q724.515 785.979 724.255 786.202Q723.994 786.424 723.711 786.618C722.268 787.598 720.633 787.904 718.914 787.906C714.683 787.91 710.344 786.854 706.147 786.307C696.738 785.081 687.323 784.115 677.989 782.359C682.242 790.951 687.917 798.756 691.533 807.66C699.4 809.408 722.47 812.328 727.313 817.548C728.331 818.646 729.052 820.104 728.843 821.641C728.569 823.651 726.434 826.257 724.759 827.331C719.98 830.396 706.556 825.355 701.303 823.952C706.674 834.947 713.81 845.345 719.952 855.96C722.44 860.26 725.434 864.803 726.96 869.554C727.411 870.957 727.515 872.452 727.182 873.893Q727.089 874.293 726.953 874.681Q726.818 875.068 726.642 875.44Q726.466 875.811 726.252 876.161Q726.038 876.512 725.788 876.837Q725.537 877.163 725.254 877.46Q724.97 877.757 724.657 878.023Q724.343 878.288 724.003 878.518Q723.664 878.749 723.301 878.942Q722.939 879.135 722.56 879.29Q722.18 879.445 721.787 879.56Q721.393 879.675 720.99 879.749Q720.587 879.823 720.178 879.855Q719.769 879.888 719.359 879.878Q718.949 879.868 718.543 879.816Q718.136 879.764 717.737 879.671Q717.338 879.578 716.95 879.444C715.288 878.883 713.778 877.792 712.666 876.442C709.681 872.816 707.395 867.824 704.973 863.769C698.081 852.231 690.915 840.53 684.897 828.518C683.556 835.567 682.312 849.902 676.658 854.461C675.018 855.783 672.759 856.399 670.674 856.019C669.153 855.741 667.52 854.694 666.719 853.352C665.74 851.711 665.725 850.406 665.952 848.594C666.733 842.379 669.353 836.046 671.02 829.98C672.597 824.242 673.683 818.258 675.102 812.459C670.278 804.796 665.882 796.485 661.698 788.454C658.346 795.565 649.327 822.062 643.859 825.706C642.531 826.591 640.996 827.009 639.42 826.622C637.435 826.134 635.38 824.634 634.545 822.749C633.771 821.003 633.99 819.191 634.466 817.397C635.994 811.634 639.331 806.127 641.666 800.641C645.664 791.249 649.294 781.639 653.163 772.184C647.993 760.81 641.3 750.078 635.263 739.151C632.93 745.165 627.316 764.546 621.611 766.824C619.796 767.548 617.564 767.211 615.815 766.461C614.034 765.697 612.265 764.26 611.66 762.348C610.099 757.416 624.159 729.869 626.791 723.705C620.583 716.7 615.738 706.889 611.831 698.388C611.209 702.319 610.606 708.103 607.449 710.866C605.432 712.631 602.366 712.99 599.799 712.643Q599.5 712.605 599.207 712.536Q598.914 712.467 598.63 712.367Q598.346 712.267 598.074 712.138Q597.802 712.009 597.545 711.852Q597.288 711.695 597.049 711.511Q596.81 711.328 596.592 711.12Q596.374 710.912 596.179 710.683Q595.984 710.453 595.815 710.204C592.073 704.793 596.493 684.16 597.921 677.33C594.25 684.523 588.148 702.165 581.539 705.894C579.644 706.964 577.543 707.191 575.485 706.457C573.312 705.682 571.372 704.066 570.395 701.954C569.737 700.532 569.602 699.102 569.952 697.577C571.06 692.739 573.679 687.85 575.58 683.263C580.456 671.494 585.766 659.792 590.141 647.841C583.753 638.249 578.269 627.661 572.655 617.587C557.904 626.595 548.538 649.888 540.025 664.397C534.465 673.875 528.383 683.092 523.115 692.733C531.54 704.728 539.546 717 548.003 728.977C554.384 738.014 561.753 747.078 567.225 756.684C568.171 758.343 569.14 760.222 568.963 762.192C568.795 764.064 567.656 765.777 566.168 766.875C564.453 768.141 562.214 768.779 560.1 768.37C558.556 768.071 557.196 767.194 556.188 765.999C554.847 764.41 553.9 762.472 552.713 760.766C550.07 756.97 547.303 753.244 544.614 749.476C536.797 738.522 528.637 727.781 521.217 716.552C521.619 727.692 521.409 738.922 521.45 750.074C529.231 762.991 539.537 775.44 548.901 787.279C552.463 791.784 556.621 796.218 559.669 801.082C560.735 802.783 561.985 805.299 561.628 807.388C561.293 809.346 559.863 810.913 558.324 812.089C557.021 813.084 555.353 813.638 553.713 813.402C552.148 813.177 550.968 812.415 549.845 811.344C545.968 807.647 542.756 802.665 539.484 798.408L520.953 774.438C521.452 785.978 521.299 797.587 521.383 809.138C524.985 812.849 528.203 817.007 531.628 820.888C539.02 829.263 546.289 837.621 553.462 846.187C556.691 850.044 560.661 853.626 563.456 857.788C564.569 859.446 565.588 861.411 565.546 863.463C565.514 865.054 564.848 866.356 563.652 867.401C561.838 868.984 559.551 869.627 557.179 869.3C553.166 868.746 525.706 835.529 521.392 830.399L521.415 847.322Q531.726 859.275 541.895 871.348C545.539 875.675 549.827 880.096 552.66 884.985C553.517 886.464 554.115 887.966 553.987 889.705Q553.964 890.016 553.909 890.324Q553.855 890.631 553.77 890.932Q553.685 891.232 553.57 891.522Q553.455 891.813 553.312 892.09Q553.168 892.367 552.998 892.629Q552.827 892.89 552.631 893.133Q552.435 893.376 552.215 893.598Q551.996 893.82 551.755 894.019C550.267 895.259 548.162 895.827 546.244 895.629C541.499 895.141 524.875 873.688 520.963 869.126C521.448 878.982 522.336 936.808 520.298 942.731C519.367 945.435 516.906 946.765 514.489 947.95C513.1 948.102 511.587 948.192 510.196 948.013C507.266 947.634 505.694 945.351 504.129 943.107C502.886 934.111 503.509 924.457 503.496 915.365L503.552 866.9C499.79 871.825 482.341 894.154 477.876 895.173C475.939 895.615 473.924 895.076 472.276 894.025C470.945 893.175 469.702 891.933 469.486 890.313C469.21 888.243 470.461 885.879 471.539 884.209C474.643 879.397 478.836 875.037 482.582 870.706C489.563 862.634 496.623 854.66 502.903 846.018C502.879 840.485 502.558 834.568 503.398 829.099C495.447 837.711 487.928 846.832 480.275 855.716C476.72 859.844 473.194 864.749 468.992 868.184C468.134 868.885 467.172 869.363 466.06 869.479C464.148 869.676 462.102 869.055 460.624 867.828C459.362 866.782 458.65 865.359 458.544 863.718C458.387 861.302 459.441 859.03 460.724 857.053C464.748 850.852 470.858 845.236 475.749 839.642C484.912 829.159 493.756 818.37 502.87 807.837C503.006 796.998 502.855 786.137 502.816 775.296C497.224 781.761 474.416 815.351 468.861 816.995C467.067 817.527 465.004 817.228 463.409 816.257C461.74 815.242 460.485 813.563 460.098 811.637C459.741 809.861 460.166 808.091 461.069 806.544C463.694 802.052 468.263 797.536 471.455 793.329C481.805 779.684 492.418 766.122 502.527 752.311C502.889 740.167 502.623 728 502.506 715.852L501.148 717.824C493.025 729.53 483.759 740.645 474.962 751.867C470.414 757.669 465.82 764.747 460.533 769.834C459.344 770.978 458.188 771.57 456.527 771.791C454.643 772.041 452.464 771.126 451.075 769.9C449.695 768.682 448.628 766.791 448.673 764.906C448.721 762.893 450.032 760.924 451.128 759.328C459.579 747.027 471.158 733.895 480.558 722.044C487.978 712.69 494.692 702.672 502.466 693.629C497.121 685.504 491.792 677.364 486.968 668.916C476.85 651.195 468.908 631.151 452.055 618.609C447.442 629.811 439.975 640.467 433.653 650.814L446.632 679.115C449.214 684.624 452.619 690.342 454.465 696.093C454.924 697.521 455.045 698.858 454.781 700.337C454.397 702.48 453.14 704.275 451.279 705.396C449.655 706.373 446.866 707.249 445.016 706.593C439.275 704.557 431.523 682.805 428.841 676.595C429.573 683.91 432.633 704.674 429.456 710.494C428.572 712.114 427.337 713.461 425.429 713.804C423.011 714.24 419.591 712.45 417.837 710.901C414.309 707.785 414.928 700.485 414.792 696.139C409.746 706.223 402.961 715.661 397.388 725.504C400.434 732.515 411.793 753.198 410.396 759.748C409.927 761.945 408.669 763.771 406.703 764.88C405.064 765.805 403.433 766.036 401.637 765.382C396.503 763.513 390.216 746.12 387.486 740.827C380.736 751.62 374.191 763.436 369.234 775.158C373.917 788.745 382.207 799.987 387.194 812.627C387.928 814.487 388.689 816.656 388.373 818.686Q388.322 819.032 388.237 819.372Q388.151 819.711 388.032 820.04Q387.912 820.369 387.76 820.684Q387.608 820.999 387.425 821.297Q387.241 821.595 387.029 821.873Q386.816 822.151 386.576 822.406Q386.337 822.661 386.072 822.89Q385.808 823.12 385.522 823.321C383.747 824.56 381.415 824.89 379.331 824.363C374.83 823.225 362.308 797.161 359.076 791.738C355.383 800.281 350.305 808.439 345.714 816.531C348.958 824.368 360.193 842.663 358.972 850.375C358.704 852.072 357.945 853.306 356.494 854.271C355.034 855.24 352.685 855.456 351.028 854.989C345.357 853.391 338.957 837.399 336.14 832.036C330.925 843.428 323.814 854.233 317.439 865.011C315.312 868.608 313.819 872.603 311.387 876.02C310.141 877.769 308.528 879.517 306.524 880.39C305.079 881.019 303.497 881.06 302.046 880.408C299.846 879.419 297.862 877.398 297.184 875.063Q297.008 874.472 296.926 873.86Q296.843 873.249 296.857 872.632Q296.87 872.016 296.979 871.408Q297.087 870.801 297.289 870.218C299.021 865.177 302.318 860.495 304.892 855.835Q313.608 839.966 322.625 824.267C317.862 825.373 301.853 829.488 298.042 826.873C296.891 826.083 296.101 824.553 295.755 823.243C295.257 821.356 295.428 819.641 296.495 817.974C299.778 812.848 324.862 809.539 331.919 807.742C336.611 799.12 341.684 790.695 346.438 782.101C337.628 784.012 307.933 790.678 301.173 787.652C299.886 787.075 298.602 786.087 298.264 784.64C297.821 782.745 298.911 779.993 300.059 778.527C301.21 777.057 303.218 776.217 304.949 775.686C310.634 773.943 317.138 773.378 323.017 772.211C333.83 770.064 344.618 767.447 355.508 765.77C361.63 754.584 368.051 743.509 373.907 732.185C368.234 733.477 347.883 738.211 342.965 735.32C341.533 734.479 340.524 733.18 340.121 731.564C339.664 729.732 340.175 727.806 341.224 726.267C342.485 724.419 344.52 723.195 346.594 722.459C351.387 720.759 356.935 720.559 361.953 719.849C368.635 718.904 375.376 717.808 381.957 716.306C387.958 706.708 393.672 696.337 398.454 686.081C395.437 687.526 392.525 688.736 389.326 689.717C386.149 688.531 382.741 686.741 380.728 683.874C379.862 682.64 379.748 681.318 380.122 679.894C380.72 677.618 383.069 675.72 384.967 674.541C389.813 671.53 401.54 667.877 407.706 664.826C400.792 665.246 382.859 667.567 377.644 663.435C376.03 662.155 375.386 659.96 375.147 657.993C374.896 655.931 375.3 653.773 376.638 652.137C377.638 650.916 378.831 650.254 380.351 649.896C384.914 648.822 390.351 649.059 395.049 648.759L427.409 646.695C433.955 636.461 439.669 625.679 446.038 615.331C426.539 606.082 375.344 610.578 353.839 615.961C348.454 631.988 342.914 648.061 337.745 664.15C334.821 673.252 332.611 683.258 328.723 691.95C327.846 693.912 326.691 695.889 324.963 697.222C323.353 698.464 321.383 698.976 319.367 698.705C317.549 698.46 315.842 697.386 314.896 695.789C313.953 694.197 313.925 692.879 314.211 691.125C315.083 685.784 317.484 680.249 319.06 675.039C323.894 659.047 329.326 643.247 333.932 627.185C329.855 629.26 325.982 631.913 322.024 634.218C317.311 636.963 312.437 639.472 307.869 642.455C306.193 646.096 305.046 650.052 303.697 653.828C301.336 660.444 282.681 702.025 278.246 703.397C276.427 703.959 273.203 703.559 271.535 702.603C270.303 701.897 269.522 700.826 269.157 699.462C268.518 697.07 269.091 694.512 269.834 692.216C271.518 687.018 274.48 682.24 276.846 677.334C280.823 669.087 284.554 660.681 288.891 652.617C279.03 657.386 270.306 664.135 260.3 668.801C255.833 682.703 252.431 697.172 248.615 711.287C247.078 716.97 245.797 723.008 243.727 728.504C243.09 730.197 242.257 732.133 240.883 733.367C239.487 734.621 237.518 735.145 235.674 734.957C234.07 734.793 232.092 733.886 231.254 732.443C230.026 730.327 230.262 726.932 230.59 724.617C231.356 719.215 233.23 713.653 234.623 708.369L242.366 678.928C237.999 681.285 233.78 684.043 229.508 686.578C226.701 695.523 219.049 733.142 213.297 736.887C211.901 737.796 210.286 738.038 208.685 737.583C206.755 737.034 205.162 735.611 204.257 733.837C203.341 732.042 203.142 730.024 203.357 728.043C203.632 725.512 204.9 723.323 205.576 720.905C207.862 712.718 209.674 704.416 212.035 696.228C201.724 700.571 154.989 730.968 148.518 730.002C146.227 729.66 144.35 728.291 143.04 726.415C141.631 724.398 140.899 721.723 141.496 719.294C141.955 717.43 143.079 716.185 144.537 715.009C150.28 710.378 157.612 706.768 163.995 703.011C177.141 695.273 190.423 687.748 203.277 679.529C195.379 677.442 168.773 673.689 164.728 667.42C163.911 666.154 163.629 664.628 164.088 663.172C164.598 661.552 165.74 659.877 167.259 659.065C169.265 657.994 171.823 657.911 174.036 658.141C179.144 658.671 184.471 660.384 189.516 661.443C200.368 663.721 211.943 665.408 222.441 668.979C226.201 666.027 230.367 663.953 234.575 661.739C228.28 660.983 221.838 659.214 215.599 657.972C205.721 656.005 195.163 654.565 185.609 651.47C184.197 651.013 182.813 650.388 181.747 649.327C180.4 647.986 179.083 645.331 179.276 643.394C179.41 642.049 180.247 641.048 181.366 640.373C183.434 639.127 186.07 638.735 188.45 638.777C195.684 638.908 203.814 641.258 210.95 642.617C225.281 645.348 239.699 647.895 253.915 651.179C263.501 645.282 273.765 640.275 283.568 634.72C276.739 634.015 237.027 630.052 233.608 627.427C232.038 626.221 230.928 623.459 231.037 621.514C231.15 619.518 232.428 617.397 234.065 616.281C235.801 615.098 237.643 615.013 239.682 615.036C250.043 615.154 261.066 617.454 271.357 618.798C281.662 620.143 292.151 620.843 302.375 622.656C311.766 617.655 320.825 612.049 330.06 606.765Q310.138 602.607 290.153 598.768C282.569 597.297 274.569 596.218 267.136 594.129C265.438 593.652 263.804 593.144 262.523 591.872C261.068 590.427 260.72 588.617 260.726 586.623C260.731 585.039 261.21 583.548 262.475 582.505C264.092 581.17 266.577 580.888 268.596 580.914C276.717 581.021 285.898 583.435 293.937 584.838Q321.981 590.018 350.111 594.714L371.271 556.38C375.395 548.764 379.986 541.06 382.817 532.853C384.667 527.486 385.46 522.3 385.746 516.646L350.549 516.334C347.435 519.431 344.702 523.014 341.825 526.335C337.114 531.773 332.294 537.117 327.618 542.585C324.724 545.968 321.995 549.885 318.652 552.815C317.157 554.126 315.524 555.207 313.585 555.727C311.36 556.323 308.864 556.101 306.889 554.864Q306.597 554.682 306.326 554.471Q306.055 554.26 305.807 554.021Q305.559 553.783 305.336 553.521Q305.114 553.258 304.921 552.974Q304.727 552.69 304.564 552.388Q304.4 552.085 304.269 551.767Q304.138 551.449 304.04 551.12Q303.943 550.79 303.88 550.452C303.469 548.283 304.055 546.112 305.141 544.228C308.283 538.777 319.502 529.583 324.32 522.455L324.758 521.8C317.354 525.364 302.363 540.301 295.85 540.038C294.1 539.968 292.492 539.237 291.321 537.931C289.7 536.123 288.598 533.712 288.899 531.255C289.494 526.391 295.795 522.143 299.293 519.291C289.561 518.761 279.487 518.858 269.749 519.29C269.446 519.767 269.148 520.224 268.808 520.676C264.277 526.702 251.251 541.669 245.92 546.036C244.008 547.603 241.757 549.083 239.239 549.348C237.687 549.511 236.151 549.087 235.017 547.967C233.563 546.53 233.007 544.335 233.122 542.346C233.522 535.447 247.779 523.853 253.08 519.154C239.257 518.57 224.615 518.476 210.818 519.359C206.809 525.264 201.769 530.405 197.31 535.964C191.966 542.626 186.734 550.748 180.589 556.595C179.269 557.851 177.64 558.979 175.863 559.455C174.165 559.911 172.322 559.722 170.853 558.702C169.393 557.689 168.604 555.856 168.489 554.12C168.39 552.64 168.682 551.301 169.34 549.974C172.997 542.605 187.445 526.042 193.392 519.177C184.562 519.491 175.726 518.866 166.886 519.29C162.016 524.201 156.951 528.949 152.157 533.928C149.503 536.684 147.093 539.913 144.147 542.355C143.037 543.275 141.937 543.888 140.496 544.082C138.805 544.31 136.935 543.547 135.65 542.487C134.254 541.336 133.219 539.542 133.136 537.715C132.878 532.034 144.24 523.438 148.096 519.409Q132.183 518.899 116.264 519.108C109.737 519.194 102.981 519.689 96.4743 519.305C94.6238 519.196 92.1503 519.117 90.5755 518.031C88.8028 516.809 87.7809 515.019 87.5792 512.871C87.3745 510.689 88.0505 508.403 89.567 506.796C90.8219 505.466 92.4322 504.915 94.1976 504.635C98.9668 503.879 104.362 504.516 109.225 504.495Q128.664 504.373 148.102 504.515C144.079 499.488 134.543 491.778 133.069 485.787C132.63 484.001 132.924 482.445 133.979 480.933C135.067 479.375 136.731 478.475 138.605 478.31C140.683 478.127 142.912 479.361 144.515 480.547C152.248 486.272 159.186 497.022 167.362 503.532L167.892 503.949C176.23 504.259 184.65 504.005 192.997 503.988C187.969 496.261 168.399 476.409 167.593 469.425C167.396 467.721 168.036 466.111 169.138 464.828C170.52 463.221 172.729 462.304 174.84 462.31C176.814 462.316 178.102 463.514 179.465 464.763C183.763 468.7 187.262 473.83 190.848 478.419C197.586 487.043 204.287 495.994 211.704 504.042L251.215 504.129C246.924 499.137 231.856 483.757 232.462 477.12C232.594 475.675 233.382 474.634 234.435 473.723C236.172 472.221 238.264 471.455 240.569 471.669C241.889 471.792 243.121 472.207 244.132 473.091C248.072 476.535 251.222 481.411 254.416 485.54C259.266 491.812 264.159 498.011 269.324 504.026Q285.06 503.767 300.795 504.039C296.493 501.258 289.815 498.229 288.65 492.754C288.115 490.238 288.519 487.397 290.008 485.263C291.071 483.738 292.642 482.692 294.494 482.43C296.36 482.166 298.268 482.621 299.939 483.44C303.658 485.26 306.83 488.414 310.146 490.89C315.295 494.733 320.565 498.432 325.789 502.172C320.995 495.403 303.312 481.411 303.184 474.152C303.151 472.281 303.928 470.595 305.306 469.337C307.162 467.643 309.901 466.949 312.363 467.213C314.582 467.451 316.749 468.47 318.396 469.97C321.664 472.948 324.438 477.344 327.391 480.743C335.342 489.9 343.612 498.734 351.138 508.259C362.555 507.504 374.24 508.004 385.693 508.128C380.852 481.748 363.302 449.445 347.199 427.958C329.053 431.505 310.775 434.403 292.61 437.88C288.508 438.665 284.328 439.346 280.258 440.264C276.355 441.143 272.409 442.565 268.423 442.913C266.473 443.084 264.39 442.805 262.666 441.828C261.17 440.98 260.294 439.829 259.861 438.147C259.4 436.349 260.089 434.124 261.11 432.641C262.582 430.501 264.971 429.199 267.424 428.506C273.398 426.817 280.449 426.416 286.637 425.253Q307.58 421.259 328.399 416.661C318.306 412.053 309.152 406.194 299.826 400.254C294.107 400.81 288.284 402.212 282.6 403.164L251.279 408.142C247.477 408.751 243.166 410.239 239.399 410.417C237.638 410.501 235.814 410.133 234.264 409.28C232.389 408.249 230.819 406.374 230.386 404.251C230.051 402.607 230.417 400.974 231.458 399.652C232.69 398.089 234.599 397.26 236.463 396.719C242.622 394.932 249.749 394.606 256.106 393.72C265.259 392.443 274.258 390.804 283.465 389.756C274.374 384.915 265.63 379.24 256.764 373.99C241.689 377.382 226.573 379.702 211.351 382.341C203.495 383.703 195.07 385.873 187.12 386.253C185.674 386.322 184.536 386.177 183.248 385.462C181.524 384.504 180.57 382.876 180.159 380.99C179.792 379.308 179.982 377.269 181.096 375.887C184.134 372.118 230.403 364.764 238.228 363.746C234.007 361.238 229.761 358.789 225.783 355.901C217.655 357.423 173.672 366.799 168.898 363.838C167.193 362.781 165.846 360.598 165.583 358.616C165.37 357.007 165.961 355.52 166.963 354.294C168.309 352.647 170.286 351.618 172.265 350.933C178.055 348.93 201.006 346.048 208.183 345.396C193.54 337.667 179.29 329.211 164.873 321.068C158.213 317.306 150.439 313.915 144.294 309.483C142.717 308.345 141.314 306.622 140.606 304.807C139.765 302.654 139.8 300.109 140.851 298.033C141.7 296.357 143.088 295.097 144.925 294.614C147.248 294.004 149.442 294.639 151.613 295.466C157.964 297.883 164.234 302.07 170.241 305.309L213.86 329.182C210.67 321.592 203.193 303.148 201.588 295.429C201.155 293.346 200.98 291.127 201.614 289.064C202.114 287.437 203.055 286.233 204.58 285.458C206.072 284.7 208.497 284.834 209.993 285.517C211.997 286.432 213.411 288.356 214.411 290.255C217.065 295.298 218.727 301.469 220.672 306.846L232.274 338.92C236.695 341.162 240.838 344.001 245.19 346.394L244.967 345.888C240.567 335.739 237.507 324.912 234.049 314.414C232.598 310.01 230.451 305.486 229.496 300.962C229.094 299.057 228.995 296.964 229.802 295.146C230.499 293.577 231.751 292.476 233.359 291.901C235.37 291.181 237.55 291.435 239.391 292.49C240.957 293.387 242.036 295.624 242.752 297.189C245.734 303.702 247.658 311.025 249.867 317.835L262.354 356.616C272.027 361.842 281.311 367.855 290.816 373.392Q281.89 356.082 273.296 338.604C271.335 334.666 267.655 328.044 269.369 323.612C269.865 322.33 270.764 321.367 272.025 320.814C273.85 320.014 275.989 320.254 277.772 321.048C279.908 321.999 281.594 323.905 282.809 325.859C285.31 329.882 286.855 334.747 289.025 339.018C296.803 354.324 304.59 369.476 311.116 385.361C319.173 390.966 328.241 395.281 336.578 400.5C336.539 400.402 336.498 400.305 336.46 400.207C330.581 384.975 326.052 369.359 321.24 353.773C319.339 347.617 316.435 340.828 315.523 334.507C315.3 332.967 315.415 331.667 316.104 330.24C316.89 328.612 318.811 327.319 320.503 326.83C322.209 326.338 324.463 326.508 325.959 327.535C327.592 328.655 328.287 330.002 329.062 331.776C333.261 341.386 336.049 352.346 339.291 362.353C344.252 377.667 349.703 393.019 353.877 408.563L360.564 412.532Q373.359 412.106 386.16 412.25C406.634 412.519 425.848 413.325 445.629 406.929C440.613 396.758 434.099 386.892 428.324 377.116C417.245 376.397 406.124 375.01 395.071 373.916C389.811 373.395 383.821 373.451 378.706 372.2C376.776 371.728 374.815 370.866 373.443 369.387C371.99 367.82 371.412 365.728 371.635 363.62C371.838 361.696 372.79 360.029 374.369 358.911C380.163 354.812 401.821 358.054 409.09 359.374C401.46 354.94 392.655 352.477 385.045 348.024C382.433 346.495 379.798 344.385 379.094 341.279C378.647 339.304 379.217 337.42 380.283 335.749C381.655 333.6 383.783 331.653 386.386 331.265C391.8 330.457 397.787 336.023 401.756 339.083C398.277 333.739 395.386 327.949 392.214 322.413C389.259 317.256 385.98 312.275 382.765 307.277C372.085 304.349 355.284 304.394 345.943 300.987C344.069 300.304 342.146 299.205 340.956 297.562C340.009 296.256 339.607 294.688 339.94 293.099C340.341 291.191 341.435 289.355 343.11 288.312C348.441 284.991 367.148 289.342 373.982 290.688C368.454 279.618 361.979 268.75 355.515 258.201C348.561 257.411 341.644 255.878 334.737 254.723C325.669 253.206 316.547 252.014 307.479 250.498C303.564 249.843 299.707 248.99 297.365 245.463C296.307 243.868 295.904 242.127 296.362 240.243C296.785 238.505 298.419 236.888 299.917 236.026C303.49 233.97 341.557 240.916 347.868 242.54C342.888 233.864 337.133 225.077 333.174 215.907L315.99 212.998C310.429 212.055 301.066 211.708 297.714 206.582C296.626 204.917 296.346 202.849 296.768 200.917C297.108 199.364 297.942 198.269 299.294 197.421C304.19 194.351 317.552 198.583 322.987 199.749C316.731 189.613 310.931 179.162 305.18 168.733C302.693 164.222 299.565 159.554 297.777 154.735C297.17 153.101 296.894 151.544 297.23 149.814C297.59 147.968 298.627 146.264 300.24 145.254C301.923 144.2 304.221 144.044 306.111 144.541C307.789 144.982 309.14 145.978 310.29 147.254C313.978 151.348 316.542 156.614 319.312 161.351C325.517 171.961 331.304 182.838 337.573 193.395C339.964 187.499 343.488 172.053 347.875 168.637C349.383 167.462 351.133 166.828 353.052 167.151C354.815 167.449 356.26 168.623 357.156 170.131C358.291 172.042 358.487 174.429 358.176 176.59C357.407 181.94 354.543 187.283 352.561 192.277Q349.281 200.461 346.828 208.929C351.107 217.869 356.236 226.417 361.314 234.918C366.184 224.653 371.008 211.611 376.234 202.057C376.704 201.198 377.373 200.398 378.265 199.961C380.028 199.096 383.493 198.674 385.34 199.517C386.625 200.102 387.499 200.989 388.025 202.295C388.877 204.407 388.591 206.838 388.012 208.979C386.372 215.042 382.926 221.27 380.261 226.954C376.542 234.884 372.949 242.806 369.578 250.892C375.813 262.108 381.917 273.915 388.956 284.634C390.695 278.996 395.821 263.017 400.852 260.442C402.567 259.565 404.926 259.513 406.73 260.241C408 260.754 408.93 261.774 409.435 263.035C412.183 269.912 400.853 292.77 397.893 299.575C403.47 309.217 408.75 319.068 414.656 328.514C414.813 323.7 415.064 318.287 418.426 314.494C420.148 312.551 422.643 311.266 425.266 311.262C427.213 311.259 428.99 312.007 430.324 313.43C431.619 314.811 432.212 316.586 432.388 318.442C433.184 326.817 429.462 339.567 429.454 348.843L429.458 349.558C431.131 343.39 439.772 319.393 445.016 316.734C447.289 315.581 450.655 316.024 452.947 316.906C454.414 317.47 455.572 318.545 456.153 320.01C457.004 322.156 456.643 324.646 456.03 326.8C454.058 333.731 449.895 340.667 446.809 347.181C442.492 356.296 438.474 365.579 434.306 374.767C441.051 383.991 446.472 394.653 452.169 404.566C456.288 400.864 460.305 397.145 463.844 392.863C478.27 375.406 489.606 349.668 499.991 329.49C496.232 325.217 493.067 320.497 489.624 315.971L474.152 296.048L459.842 277.679C457.216 274.323 454.156 270.977 451.93 267.347C450.895 265.658 450.136 263.861 450.267 261.842Q450.287 261.535 450.337 261.231Q450.387 260.927 450.467 260.63Q450.547 260.333 450.657 260.045Q450.766 259.757 450.903 259.481Q451.04 259.206 451.204 258.945Q451.367 258.684 451.556 258.441Q451.745 258.198 451.957 257.974Q452.169 257.751 452.402 257.55C454.13 256.047 456.434 255.441 458.689 255.747C460.206 255.953 461.901 256.669 463.04 257.712C467.529 261.823 472.032 268.982 475.852 273.852C484.954 285.455 494.391 296.815 503.101 308.718Q503.325 292.329 503.009 275.942C493.372 262.077 483.418 248.452 473.855 234.536C470.435 229.559 466.217 224.599 463.449 219.238C462.488 217.377 461.725 215.583 462.043 213.452C462.303 211.709 463.246 210.084 464.801 209.191C466.274 208.346 468.44 208.335 470.055 208.709C474.734 209.793 499.147 243.865 503.112 249.929L503.074 218.382C493.49 204.652 480.598 191.7 469.702 178.852C466.086 174.588 461.891 170.252 458.976 165.483C458.038 163.949 457.401 162.244 457.394 160.427C457.388 158.716 458.032 157.129 459.276 155.948C460.479 154.806 462.098 154.023 463.782 154.092C465.763 154.174 467.509 155.256 468.999 156.479C472.377 159.251 475.308 163.147 478.203 166.441C486.638 176.038 494.518 186.362 503.446 195.484L503.479 178.088C496.989 168.94 471.765 144.72 471.179 135.809C471.074 134.215 471.554 132.959 472.613 131.784C473.823 130.442 476.023 129.626 477.806 129.729C483.375 130.052 499.324 150.515 503.52 155.561L503.617 115.064C503.611 106.308 502.799 92.5213 504.565 84.3692C505.092 81.9359 507.012 80.8305 508.94 79.5712Z"/>
	<path fill="#141413" transform="scale(1.13734 1.13734)" d="M531.542 533.298C538.728 536.535 545.159 542.077 552.063 545.965Q593.061 569.21 633.723 593.037L627.224 592.189C606.419 590.215 586.967 589.429 567.081 596.698C559.257 582.978 551.901 568.953 544.262 555.126C540.211 547.791 536.331 540.18 531.542 533.298Z"/>
	<path fill="#141413" transform="scale(1.13734 1.13734)" d="M491.485 533.542L491.73 533.962C484.331 542.744 479.372 554.6 473.974 564.714Q465.313 581.012 455.521 596.657C434.729 588.145 412.756 590.217 391.113 593.487L384.194 594.822C412.985 579.87 441.197 563.617 469.241 547.32C476.78 542.939 483.87 537.776 491.485 533.542Z"/>
	<path fill="#141413" transform="scale(1.13734 1.13734)" d="M521.595 364.387C524.047 368.142 525.313 373.696 527.137 377.88C534.218 394.13 543.669 413.8 559.519 422.836C550.819 435.444 543.258 449.073 535.041 462.031C530.221 469.803 525.61 477.563 521.514 485.745L521.595 364.387Z"/>
	<path fill="#141413" transform="scale(1.13734 1.13734)" d="M565.559 426.209C585.799 437.179 618.789 431.63 640.711 428.792C619.701 438.68 599.028 450.513 579.182 462.557C562.853 471.82 545.647 480.692 530.529 491.871C532.935 486.672 536.385 481.849 539.108 476.783L552.266 451.739C556.788 443.294 561.563 434.919 565.559 426.209Z"/>
	<path fill="#141413" transform="scale(1.13734 1.13734)" d="M521.121 536.424C524.351 540.049 529.797 551.377 532.894 556.489C541.852 571.273 551.736 585.527 560.167 600.63C549.523 609.203 541.725 619.661 535.052 631.514C530.313 640.115 526.566 649.147 521.976 657.782C522.477 634.132 522.075 610.341 521.953 586.679C521.867 570.084 522.427 552.956 521.121 536.424Z"/>
	<path fill="#141413" transform="scale(1.13734 1.13734)" d="M407.617 516.58C433.418 517.04 459.617 517.346 485.41 516.509C478.601 519.354 472.002 523.492 465.555 527.09Q445.787 538.212 426.216 549.678C409.408 558.617 393.465 568.844 377.615 579.349C390.414 559.086 404.528 541.25 407.617 516.58Z"/>
	<path fill="#141413" transform="scale(1.13734 1.13734)" d="M578.563 516.749C590.547 516.603 602.592 516.48 614.57 516.892C618.787 545.86 633.621 557.534 647.907 579.833C639.51 574.483 630.811 569.491 622.254 564.402C615.766 560.91 609.49 556.855 603.111 553.153L564.453 531.071C555.875 526.208 547.353 521.062 538.321 517.084C551.653 517.533 565.212 516.877 578.563 516.749Z"/>
	<path fill="#141413" transform="scale(1.13734 1.13734)" d="M454.554 426.532C457.914 427.9 486.843 483.371 491.792 491.616C486.076 487.319 479.65 483.892 473.475 480.292L447.242 464.951C426.655 452.804 405.662 441.333 385.063 429.217C402.565 432.03 438.501 433.615 454.554 426.532Z"/>
	<path fill="#141413" transform="scale(1.13734 1.13734)" d="M647.919 445.074C648.204 445.982 645.159 448.754 644.343 449.707C629.884 466.606 618.901 486.201 614.169 507.994Q577.527 507.398 540.88 507.546L540.26 507.401L540.395 506.892C543.329 504.951 546.642 503.696 549.716 501.99Q560.111 496.093 570.417 490.041Q609.017 467.297 647.919 445.074Z"/>
	<path fill="#141413" transform="scale(1.13734 1.13734)" d="M379.317 446.747C383.948 447.712 398.794 458.511 404.178 461.658L462.821 495.851C467.403 498.473 471.974 501.181 476.648 503.633C479.05 504.894 481.98 505.736 484.124 507.378C474.763 507.009 465.21 507.631 455.826 507.745L407.703 507.976C402.44 482.56 392.764 468.086 379.317 446.747Z"/>
	<path fill="#141413" transform="scale(1.13734 1.13734)" d="M502.264 536.437C502.406 536.629 502.627 536.782 502.689 537.012C503.032 538.298 502.481 553.161 502.479 555.96L502.516 632.145C502.54 640.906 502.909 649.658 502.831 658.419C498.948 649.466 494.167 640.927 489.453 632.393C482.587 619.605 475.335 608.804 463.026 600.677C467.978 593.998 472.089 586.252 476.481 579.169C485.27 564.993 494.06 550.969 502.264 536.437Z"/>
	<path fill="#141413" transform="scale(1.13734 1.13734)" d="M502.236 361.365C502.837 365.558 502.511 370.353 502.505 374.593L502.433 398.894C502.369 428.335 501.945 457.856 502.474 487.287C498.038 479.032 492.909 471.066 488.071 463.036Q475.013 442.884 462.831 422.191C480.179 411.039 494.394 380.274 502.236 361.365Z"/>
</svg>
