<?xml version="1.0" standalone="no"?><!DOCTYPE svg PUBLIC "-//W3C//DTD SVG 1.1//EN" "http://www.w3.org/Graphics/SVG/1.1/DTD/svg11.dtd"><svg t="1733298807895" class="icon" viewBox="0 0 1024 1024" version="1.1" xmlns="http://www.w3.org/2000/svg" p-id="18082" xmlns:xlink="http://www.w3.org/1999/xlink" width="200" height="200"><path d="M972.191686 341.262111l-26.120893-10.295475L626.532431 650.444622c-8.733911 8.763587-22.859619 8.763587-31.59353 0-8.704236-8.704236-8.704236-22.859619 0-31.563854l305.787184-305.787184-55.721025-21.960133L556.116742 579.969581c-17.498522 17.618249-38.459909 24.756827-55.959455 7.317657-17.377772-17.438147-9.668189-38.008632 7.770981-55.386404l270.735904-270.685763c-13.813599-7.857962-30.300072-18.313073-47.23987-31.48506L468.56478 492.568045c-8.704236 8.704236-22.799244 8.704236-31.503479 0-8.79531-8.733911-8.79531-22.859619 0-31.59353l260.915243-260.867147c-8.357335-8.476038-16.458844-17.656111-24.011861-27.564777L566.805166 31.951687c0 0-54.783677-71.891296-109.538701 0l-108.153146 141.885384c0 0-54.783677 71.891296-138.843097 104.990109L51.851293 341.261088c0 0-84.05942 33.098813-35.930299 109.568377l95.775244 152.245328c0 0 48.098423 76.468541 52.043265 166.702586l8.011458 184.593034c0 0 3.915166 90.293397 90.744675 65.235718l162.727045-46.953344c0 0 86.799832-24.997304 173.62934 0l162.727045 46.953344c0 0 86.798809 25.057679 90.744675-65.235718l8.011458-184.593034c0 0 3.944842-90.233022 52.043265-166.702586l95.775244-152.245328C1008.152684 450.830488 1056.280782 374.361947 972.191686 341.262111zM337.039339 750.467607l54.5432-218.1728c0.903579 1.145079 1.23513 2.43956 2.258435 3.463889 10.451018 10.451018 23.792873 16.805744 38.249109 18.733652-0.662079 4.246717-1.294481 8.462735-1.294481 12.859879 0 23.822549 9.305939 46.201215 26.173082 63.157385 16.896818 16.83542 39.303113 26.202758 63.157385 26.202758 4.699018 0 9.246587-0.662079 13.794157-1.35588 1.897208 13.913883 7.047504 27.526915 17.769698 38.189757 0.872879 0.934278 2.017958 1.566681 2.921537 2.43956L337.039339 750.467607z" p-id="18083" fill="#000000"></path></svg>